# Blender 3.1.0
# www.blender.org
mtllib Red_Brick.mtl
o Brick 1 low.001
v 0.121171 0.061172 -0.060000
v 0.121171 0.065001 -0.056171
v 0.125000 0.061172 -0.056171
v 0.121171 0.063880 -0.058879
v 0.123382 0.063383 -0.058382
v 0.123879 0.063880 -0.056171
v 0.123879 0.061172 -0.058879
v 0.121171 0.000001 -0.056171
v 0.121171 0.003830 -0.060000
v 0.125000 0.003830 -0.056171
v 0.121171 0.001123 -0.058879
v 0.123382 0.001620 -0.058382
v 0.123879 0.003830 -0.058879
v 0.123879 0.001123 -0.056171
v 0.125000 0.061172 0.056171
v 0.121171 0.065001 0.056171
v 0.121171 0.061172 0.060000
v 0.123879 0.063880 0.056171
v 0.123382 0.063383 0.058382
v 0.121171 0.063880 0.058879
v 0.123879 0.061172 0.058879
v 0.125000 0.003830 0.056171
v 0.121171 0.003830 0.060000
v 0.121171 0.000001 0.056171
v 0.123879 0.003830 0.058879
v 0.123382 0.001620 0.058382
v 0.121171 0.001123 0.058879
v 0.123879 0.001123 0.056171
v -0.121171 0.061172 -0.060000
v -0.125000 0.061172 -0.056171
v -0.121171 0.065001 -0.056171
v -0.123879 0.061172 -0.058879
v -0.123382 0.063383 -0.058382
v -0.123879 0.063880 -0.056171
v -0.121171 0.063880 -0.058879
v -0.125000 0.003830 -0.056171
v -0.121171 0.003830 -0.060000
v -0.121171 0.000001 -0.056171
v -0.123879 0.003830 -0.058879
v -0.123382 0.001620 -0.058382
v -0.121171 0.001123 -0.058879
v -0.123879 0.001123 -0.056171
v -0.125000 0.061172 0.056171
v -0.121171 0.061172 0.060000
v -0.121171 0.065001 0.056171
v -0.123879 0.061172 0.058879
v -0.123382 0.063383 0.058382
v -0.121171 0.063880 0.058879
v -0.123879 0.063880 0.056171
v -0.121171 0.000001 0.056171
v -0.121171 0.003830 0.060000
v -0.125000 0.003830 0.056171
v -0.121171 0.001123 0.058879
v -0.123382 0.001620 0.058382
v -0.123879 0.003830 0.058879
v -0.123879 0.001123 0.056171
vn -0.0000 -1.0000 -0.0000
vn -1.0000 -0.0000 -0.0000
vn -0.0000 -0.0000 1.0000
vn -0.0000 1.0000 -0.0000
vn 1.0000 -0.0000 -0.0000
vn 0.3251 0.3251 -0.8881
vn 0.3251 0.8881 -0.3251
vn 0.8881 0.3251 -0.3251
vn 0.3251 -0.8881 -0.3251
vn 0.3251 -0.3251 -0.8881
vn 0.8881 -0.3251 -0.3251
vn 0.8881 0.3251 0.3251
vn 0.3251 0.8881 0.3251
vn 0.3251 0.3251 0.8881
vn 0.8881 -0.3251 0.3251
vn 0.3251 -0.3251 0.8881
vn 0.3251 -0.8881 0.3251
vn -0.3251 0.3251 -0.8881
vn -0.8881 0.3251 -0.3251
vn -0.3251 0.8881 -0.3251
vn -0.8881 -0.3251 -0.3251
vn -0.3251 -0.3251 -0.8881
vn -0.3251 -0.8881 -0.3251
vn -0.8881 0.3251 0.3251
vn -0.3251 0.3251 0.8881
vn -0.3251 0.8881 0.3251
vn -0.3251 -0.8881 0.3251
vn -0.3251 -0.3251 0.8881
vn -0.8881 -0.3251 0.3251
vn -0.3827 -0.9239 -0.0000
vn -0.9239 -0.3827 -0.0000
vn -0.0000 -0.9239 -0.3827
vn -0.0000 -0.3827 -0.9239
vn 0.9239 -0.0000 -0.3827
vn 0.3827 -0.0000 -0.9239
vn -0.3827 -0.0000 0.9239
vn -0.9239 -0.0000 0.3827
vn 0.3827 -0.0000 0.9239
vn 0.9239 -0.0000 0.3827
vn -0.3827 -0.0000 -0.9239
vn -0.9239 -0.0000 -0.3827
vn -0.0000 0.9239 0.3827
vn -0.0000 0.3827 0.9239
vn 0.3827 0.9239 -0.0000
vn 0.9239 0.3827 -0.0000
vn -0.0000 -0.9239 0.3827
vn -0.0000 -0.3827 0.9239
vn -0.3827 0.9239 -0.0000
vn -0.9239 0.3827 -0.0000
vn -0.0000 0.9239 -0.3827
vn -0.0000 0.3827 -0.9239
vn 0.3827 -0.9239 -0.0000
vn 0.9239 -0.3827 -0.0000
vn -0.0000 -0.0000 -1.0000
vt 0.657364 0.015857
vt 0.625651 0.015857
vt 0.015857 0.960123
vt 0.635502 0.015857
vt 0.647512 0.015857
vt 0.647512 0.010169
vt 0.631339 0.006005
vt 0.010169 0.969975
vt 0.625651 0.006005
vt 0.006005 0.960123
vt 0.015857 0.969975
vt 0.657364 0.006005
vt 0.304897 0.639370
vt 0.804897 0.015857
vt 0.163390 0.960123
vt 0.314749 0.639370
vt 0.814749 0.015857
vt 0.314749 0.645057
vt 0.810585 0.006005
vt 0.173241 0.965811
vt 0.163390 0.969975
vt 0.804897 0.006005
vt 0.304897 0.649221
vt 0.173241 0.960123
vt 0.015857 0.671083
vt 0.336610 0.015857
vt 0.836610 0.639370
vt 0.336610 0.006005
vt 0.006005 0.671083
vt 0.006005 0.665395
vt 0.326759 0.010169
vt 0.830922 0.649221
vt 0.326759 0.015857
vt 0.826759 0.639370
vt 0.836610 0.649221
vt 0.015857 0.661231
vt 0.163390 0.671083
vt 0.984143 0.639370
vt 0.015857 0.639370
vt 0.984143 0.649221
vt 0.163390 0.661231
vt 0.169077 0.661231
vt 0.993995 0.645057
vt 0.010169 0.649221
vt 0.006005 0.639370
vt 0.993995 0.639370
vt 0.015857 0.649221
vt 0.173241 0.671083
vt 0.657364 0.639370
vt 0.195103 0.671083
vt 0.625651 0.639370
vt 0.657364 0.649221
vt 0.195103 0.661231
vt 0.651676 0.649221
vt 0.185251 0.665395
vt 0.635502 0.645057
vt 0.625651 0.649221
vt 0.185251 0.671083
vt 0.635502 0.639370
vt 0.647512 0.639370
vt 0.342636 0.671083
vt 0.804897 0.639370
vt 0.304897 0.015857
vt 0.804897 0.649221
vt 0.342636 0.661231
vt 0.348324 0.661231
vt 0.814749 0.645057
vt 0.310585 0.006005
vt 0.314749 0.015857
vt 0.814749 0.639370
vt 0.304897 0.006005
vt 0.352487 0.671083
vt 0.195103 0.960123
vt 0.836610 0.015857
vt 0.336610 0.639370
vt 0.836610 0.006005
vt 0.195103 0.969975
vt 0.189415 0.969975
vt 0.826759 0.010169
vt 0.330923 0.649221
vt 0.326759 0.639370
vt 0.826759 0.015857
vt 0.336610 0.649221
vt 0.185251 0.960123
vt 0.015857 0.015857
vt 0.984143 0.015857
vt 0.342636 0.960123
vt 0.006005 0.015857
vt 0.993995 0.015857
vt 0.006005 0.010169
vt 0.989831 0.006005
vt 0.352487 0.965811
vt 0.984143 0.006005
vt 0.342636 0.969975
vt 0.015857 0.006005
vt 0.352487 0.960123
s 0
usemtl Red_Brick
f 38/63/1 8/13/1 24/39/1 50/85/1
f 52/87/2 43/73/2 30/50/2 36/61/2
f 23/38/3 17/27/3 44/74/3 51/86/3
f 2/2/4 31/51/4 45/75/4 16/26/4
f 10/15/5 3/3/5 15/25/5 22/37/5
f 1/1/6 4/5/6 5/6/6 7/12/6
f 2/2/7 6/9/7 5/7/7 4/4/7
f 3/3/8 7/11/8 5/8/8 6/10/8
f 8/13/9 11/16/9 12/18/9 14/23/9
f 9/14/10 13/22/10 12/19/10 11/17/10
f 10/15/11 14/24/11 12/20/11 13/21/11
f 15/25/12 18/29/12 19/30/12 21/36/12
f 16/26/13 20/33/13 19/31/13 18/28/13
f 17/27/14 21/35/14 19/32/14 20/34/14
f 22/37/15 25/41/15 26/42/15 28/48/15
f 23/38/16 27/46/16 26/43/16 25/40/16
f 24/39/17 28/47/17 26/44/17 27/45/17
f 29/49/18 32/52/18 33/54/18 35/60/18
f 30/50/19 34/58/19 33/55/19 32/53/19
f 31/51/20 35/59/20 33/56/20 34/57/20
f 36/61/21 39/65/21 40/66/21 42/72/21
f 37/62/22 41/70/22 40/67/22 39/64/22
f 38/63/23 42/71/23 40/68/23 41/69/23
f 43/73/24 46/77/24 47/78/24 49/84/24
f 44/74/25 48/82/25 47/79/25 46/76/25
f 45/75/26 49/83/26 47/80/26 48/81/26
f 50/85/27 53/88/27 54/90/27 56/95/27
f 51/86/28 55/93/28 54/91/28 53/89/28
f 52/87/29 56/96/29 54/92/29 55/94/29
f 38/63/30 50/85/30 56/95/30 42/71/30
f 42/72/31 56/96/31 52/87/31 36/61/31
f 8/13/32 38/63/32 41/69/32 11/16/32
f 11/17/33 41/70/33 37/62/33 9/14/33
f 3/3/34 10/15/34 13/21/34 7/11/34
f 7/12/35 13/22/35 9/14/35 1/1/35
f 51/86/36 44/74/36 46/76/36 55/93/36
f 55/94/37 46/77/37 43/73/37 52/87/37
f 17/27/38 23/38/38 25/40/38 21/35/38
f 21/36/39 25/41/39 22/37/39 15/25/39
f 29/49/40 37/62/40 39/64/40 32/52/40
f 32/53/41 39/65/41 36/61/41 30/50/41
f 16/26/42 45/75/42 48/81/42 20/33/42
f 20/34/43 48/82/43 44/74/43 17/27/43
f 2/2/44 16/26/44 18/28/44 6/9/44
f 6/10/45 18/29/45 15/25/45 3/3/45
f 50/85/46 24/39/46 27/45/46 53/88/46
f 53/89/47 27/46/47 23/38/47 51/86/47
f 45/75/48 31/51/48 34/57/48 49/83/48
f 49/84/49 34/58/49 30/50/49 43/73/49
f 31/51/50 2/2/50 4/4/50 35/59/50
f 35/60/51 4/5/51 1/1/51 29/49/51
f 24/39/52 8/13/52 14/23/52 28/47/52
f 28/48/53 14/24/53 10/15/53 22/37/53
f 37/62/54 29/49/54 1/1/54 9/14/54
